<svg width="470" height="80" viewBox="0 0 470 80" fill="none" xmlns="http://www.w3.org/2000/svg">
<mask id="mask0_10248_193" style="mask-type:luminance" maskUnits="userSpaceOnUse" x="0" y="0" width="50" height="50">
<path d="M0.578125 0.625H49.3333V49.3333H0.578125V0.625Z" fill="white"/>
</mask>
<g mask="url(#mask0_10248_193)">
<path d="M25.1668 1.17188C11.8908 1.17188 1.13037 11.9375 1.13037 25.2083C1.13037 38.4844 11.8908 49.2448 25.1668 49.2448C38.4429 49.2448 49.2033 38.4844 49.2033 25.2083C49.2033 11.9375 38.4429 1.17188 25.1668 1.17188ZM38.297 38.3438C34.7918 41.8542 30.1252 43.7865 25.1668 43.7865C20.2033 43.7865 15.5418 41.8542 12.0314 38.3438C8.5262 34.8385 6.59391 30.1719 6.59391 25.2083C6.59391 20.25 8.5262 15.5833 12.0314 12.0781C15.5418 8.56771 20.2033 6.63542 25.1668 6.63542C30.1252 6.63542 34.7918 8.56771 38.297 12.0781C41.8075 15.5833 43.7397 20.25 43.7397 25.2083C43.7397 30.1719 41.8075 34.8385 38.297 38.3438Z" fill="#5E17EB"/>
</g>
<mask id="mask1_10248_193" style="mask-type:luminance" maskUnits="userSpaceOnUse" x="0" y="0" width="50" height="50">
<path d="M0.578125 0.625H49.5781V49.625H0.578125V0.625Z" fill="white"/>
</mask>
<g mask="url(#mask1_10248_193)">
<path d="M25.1667 49.7969C11.6094 49.7969 0.578125 38.7656 0.578125 25.2083C0.578125 11.6563 11.6094 0.625 25.1667 0.625C38.724 0.625 49.75 11.6563 49.75 25.2083C49.75 38.7656 38.724 49.7969 25.1667 49.7969ZM25.1667 1.72396C12.2135 1.72396 1.67708 12.2604 1.67708 25.2083C1.67708 38.1615 12.2135 48.6979 25.1667 48.6979C38.1146 48.6979 48.651 38.1615 48.651 25.2083C48.651 12.2604 38.1146 1.72396 25.1667 1.72396ZM25.1667 44.3333C20.0573 44.3333 15.2552 42.3438 11.6458 38.7344C8.03125 35.1198 6.04167 30.3177 6.04167 25.2083C6.04167 20.1042 8.03125 15.3021 11.6458 11.6875C15.2552 8.07813 20.0573 6.08854 25.1667 6.08854C30.276 6.08854 35.0781 8.07813 38.6875 11.6875C42.3021 15.3021 44.2917 20.1042 44.2917 25.2083C44.2917 30.3177 42.3021 35.1198 38.6875 38.7344C35.0781 42.3438 30.276 44.3333 25.1667 44.3333ZM25.1667 7.1875C20.349 7.1875 15.8229 9.0625 12.4219 12.4635C9.01563 15.8698 7.14063 20.3958 7.14063 25.2083C7.14063 30.026 9.01563 34.5521 12.4219 37.9531C15.8281 41.3594 20.349 43.2344 25.1667 43.2344C29.9792 43.2344 34.5052 41.3594 37.9115 37.9531C41.3177 34.5521 43.1927 30.026 43.1927 25.2083C43.1927 20.3958 41.3177 15.8698 37.9115 12.4635C34.5052 9.0625 29.9792 7.1875 25.1667 7.1875Z" fill="#5E17EB"/>
</g>
<mask id="mask2_10248_193" style="mask-type:luminance" maskUnits="userSpaceOnUse" x="0" y="51" width="50" height="26">
<path d="M0.578125 51.2239H49.3333V76.2239H0.578125V51.2239Z" fill="white"/>
</mask>
<g mask="url(#mask2_10248_193)">
<path d="M25.1668 51.7759C11.8908 51.7759 1.13037 62.5363 1.13037 75.8123C1.13037 89.0832 11.8908 99.8488 25.1668 99.8488C38.4429 99.8488 49.2033 89.0832 49.2033 75.8123C49.2033 62.5363 38.4429 51.7759 25.1668 51.7759ZM38.297 88.9425C34.7918 92.453 30.1252 94.3853 25.1668 94.3853C20.2033 94.3853 15.5418 92.453 12.0314 88.9425C8.5262 85.4373 6.59391 80.7707 6.59391 75.8123C6.59391 70.8488 8.5262 66.1821 12.0314 62.6769C15.5418 59.1665 20.2033 57.2342 25.1668 57.2342C30.1252 57.2342 34.7918 59.1665 38.297 62.6769C41.8075 66.1821 43.7397 70.8488 43.7397 75.8123C43.7397 80.7707 41.8075 85.4373 38.297 88.9425Z" fill="#5E17EB"/>
</g>
<mask id="mask3_10248_193" style="mask-type:luminance" maskUnits="userSpaceOnUse" x="0" y="51" width="50" height="26">
<path d="M0.578125 51.2239H49.5781V76.2239H0.578125V51.2239Z" fill="white"/>
</mask>
<g mask="url(#mask3_10248_193)">
<path d="M25.1667 100.396C11.6094 100.396 0.578125 89.3645 0.578125 75.8124C0.578125 62.2551 11.6094 51.2239 25.1667 51.2239C38.724 51.2239 49.75 62.2551 49.75 75.8124C49.75 89.3645 38.724 100.396 25.1667 100.396ZM25.1667 52.3228C12.2135 52.3228 1.67708 62.8593 1.67708 75.8124C1.67708 88.7603 12.2135 99.2968 25.1667 99.2968C38.1146 99.2968 48.651 88.7603 48.651 75.8124C48.651 62.8593 38.1146 52.3228 25.1667 52.3228ZM25.1667 94.9322C20.0573 94.9322 15.2552 92.9426 11.6458 89.3333C8.03125 85.7187 6.04167 80.9166 6.04167 75.8124C6.04167 70.703 8.03125 65.901 11.6458 62.2864C15.2552 58.677 20.0573 56.6874 25.1667 56.6874C30.276 56.6874 35.0781 58.677 38.6875 62.2864C42.3021 65.901 44.2917 70.703 44.2917 75.8124C44.2917 80.9166 42.3021 85.7187 38.6875 89.3333C35.0781 92.9426 30.276 94.9322 25.1667 94.9322ZM25.1667 57.7864C20.349 57.7864 15.8229 59.6614 12.4219 63.0676C9.01563 66.4687 7.14063 70.9947 7.14063 75.8124C7.14063 80.6249 9.01563 85.151 12.4219 88.5572C15.8281 91.9583 20.349 93.8333 25.1667 93.8333C29.9792 93.8333 34.5052 91.9583 37.9115 88.5572C41.3177 85.151 43.1927 80.6249 43.1927 75.8124C43.1927 70.9947 41.3177 66.4687 37.9115 63.0676C34.5052 59.6614 29.9792 57.7864 25.1667 57.7864Z" fill="#5E17EB"/>
</g>
<mask id="mask4_10248_193" style="mask-type:luminance" maskUnits="userSpaceOnUse" x="0" y="72" width="8" height="8">
<path d="M0.578125 72.9583H7.4375V79.8176H0.578125V72.9583Z" fill="white"/>
</mask>
<g mask="url(#mask4_10248_193)">
<mask id="mask5_10248_193" style="mask-type:luminance" maskUnits="userSpaceOnUse" x="0" y="72" width="8" height="8">
<path d="M4.01042 72.9583C2.11458 72.9583 0.578125 74.4947 0.578125 76.3905C0.578125 78.2812 2.11458 79.8176 4.01042 79.8176C5.90104 79.8176 7.4375 78.2812 7.4375 76.3905C7.4375 74.4947 5.90104 72.9583 4.01042 72.9583Z" fill="white"/>
</mask>
<g mask="url(#mask5_10248_193)">
<path d="M0.578125 72.9583H7.4375V79.8176H0.578125V72.9583Z" fill="#5E17EB"/>
</g>
</g>
<mask id="mask6_10248_193" style="mask-type:luminance" maskUnits="userSpaceOnUse" x="21" y="72" width="8" height="8">
<path d="M21.7446 72.9583H28.604V79.8176H21.7446V72.9583Z" fill="white"/>
</mask>
<g mask="url(#mask6_10248_193)">
<mask id="mask7_10248_193" style="mask-type:luminance" maskUnits="userSpaceOnUse" x="21" y="72" width="8" height="8">
<path d="M25.1717 72.9583C23.2811 72.9583 21.7446 74.4947 21.7446 76.3905C21.7446 78.2812 23.2811 79.8176 25.1717 79.8176C27.0675 79.8176 28.604 78.2812 28.604 76.3905C28.604 74.4947 27.0675 72.9583 25.1717 72.9583Z" fill="white"/>
</mask>
<g mask="url(#mask7_10248_193)">
<path d="M21.7446 72.9583H28.604V79.8176H21.7446V72.9583Z" fill="#5E17EB"/>
</g>
</g>
<mask id="mask8_10248_193" style="mask-type:luminance" maskUnits="userSpaceOnUse" x="42" y="72" width="8" height="8">
<path d="M42.9116 72.9583H49.7658V79.8176H42.9116V72.9583Z" fill="white"/>
</mask>
<g mask="url(#mask8_10248_193)">
<mask id="mask9_10248_193" style="mask-type:luminance" maskUnits="userSpaceOnUse" x="42" y="72" width="8" height="8">
<path d="M46.3387 72.9583C44.4429 72.9583 42.9116 74.4947 42.9116 76.3905C42.9116 78.2812 44.4429 79.8176 46.3387 79.8176C48.2345 79.8176 49.7658 78.2812 49.7658 76.3905C49.7658 74.4947 48.2345 72.9583 46.3387 72.9583Z" fill="white"/>
</mask>
<g mask="url(#mask9_10248_193)">
<path d="M42.9116 72.9583H49.7658V79.8176H42.9116V72.9583Z" fill="#5E17EB"/>
</g>
</g>
<path d="M85.0483 32.5793C88.9754 32.5793 92.4754 33.5688 95.5483 35.5376C98.616 37.5116 101.054 40.2355 102.861 43.7043C104.663 47.1626 105.569 51.1418 105.569 55.6418C105.569 60.1418 104.663 64.1418 102.861 67.6418C101.054 71.1313 98.6317 73.8709 95.59 75.8709C92.5588 77.8709 89.1317 78.8709 85.2983 78.8709C83.1577 78.8709 81.1317 78.5168 79.215 77.8084C77.2983 77.1001 75.6108 76.1991 74.1525 75.1001C72.6942 74.0064 71.4963 72.8397 70.5692 71.6001C69.6369 70.3657 69.0588 69.2147 68.84 68.1418L71.1108 67.0376V74.3918C71.1108 75.5741 70.6994 76.5741 69.8817 77.3918C69.0588 78.1938 68.0588 78.6001 66.8817 78.6001C65.6421 78.6001 64.6317 78.2095 63.84 77.4334C63.0588 76.6418 62.6733 75.6314 62.6733 74.3918V19.8293C62.6733 18.5949 63.0588 17.5741 63.84 16.7668C64.6317 15.9491 65.6421 15.5376 66.8817 15.5376C68.0588 15.5376 69.0588 15.9491 69.8817 16.7668C70.6994 17.5741 71.1108 18.5949 71.1108 19.8293V43.5584L69.7567 42.8084C69.9233 41.7407 70.4546 40.6313 71.3608 39.4751C72.2619 38.3241 73.4025 37.2147 74.7775 36.1418C76.1629 35.0741 77.741 34.2147 79.5067 33.5584C81.2827 32.9074 83.1317 32.5793 85.0483 32.5793ZM84.1108 40.3501C81.4129 40.3501 79.0692 41.0324 77.0692 42.3918C75.0692 43.7407 73.5067 45.5532 72.3817 47.8293C71.2567 50.1105 70.6942 52.7147 70.6942 55.6418C70.6942 58.5741 71.2567 61.2043 72.3817 63.5376C73.5067 65.8709 75.0692 67.7199 77.0692 69.0793C79.0692 70.4282 81.4129 71.1001 84.1108 71.1001C86.7619 71.1001 89.0692 70.4282 91.0275 69.0793C92.9963 67.7199 94.5588 65.8605 95.715 63.4959C96.8817 61.1366 97.465 58.5168 97.465 55.6418C97.465 52.7147 96.8817 50.1105 95.715 47.8293C94.5588 45.5532 92.9963 43.7407 91.0275 42.3918C89.0692 41.0324 86.7619 40.3501 84.1108 40.3501Z" fill="#5E17EB"/>
<path d="M145.078 32.9335C146.312 32.9335 147.317 33.345 148.098 34.1627C148.89 34.97 149.286 35.9908 149.286 37.2252V73.7043C149.286 74.9439 148.89 75.97 148.098 76.7877C147.317 77.6106 146.312 78.0168 145.078 78.0168C143.88 78.0168 142.875 77.6106 142.057 76.7877C141.25 75.97 140.848 74.9439 140.848 73.7043V67.621L142.619 67.8918C142.619 68.9075 142.208 70.0325 141.39 71.2668C140.567 72.5064 139.458 73.6991 138.057 74.8502C136.651 76.0064 134.994 76.9648 133.078 77.7252C131.161 78.4856 129.104 78.871 126.911 78.871C123.02 78.871 119.526 77.871 116.432 75.871C113.348 73.871 110.901 71.1314 109.098 67.6418C107.291 64.1418 106.39 60.1731 106.39 55.7252C106.39 51.1731 107.291 47.1627 109.098 43.7043C110.901 40.2356 113.333 37.5116 116.39 35.5377C119.458 33.5689 122.88 32.5793 126.661 32.5793C129.078 32.5793 131.312 32.9752 133.369 33.7668C135.421 34.5585 137.208 35.5741 138.723 36.8085C140.25 38.0481 141.421 39.3606 142.244 40.746C143.062 42.121 143.473 43.4283 143.473 44.6627L140.848 44.9127V37.2252C140.848 36.0481 141.25 35.0377 142.057 34.2043C142.875 33.3606 143.88 32.9335 145.078 32.9335ZM127.848 71.1002C130.484 71.1002 132.817 70.4283 134.848 69.0793C136.875 67.72 138.453 65.871 139.578 63.5377C140.703 61.2043 141.265 58.6002 141.265 55.7252C141.265 52.7981 140.703 50.1783 139.578 47.871C138.453 45.5689 136.875 43.7408 134.848 42.3918C132.817 41.0325 130.484 40.3502 127.848 40.3502C125.25 40.3502 122.953 41.0325 120.953 42.3918C118.963 43.7408 117.39 45.5689 116.223 47.871C115.067 50.1783 114.494 52.7981 114.494 55.7252C114.494 58.6002 115.067 61.2043 116.223 63.5377C117.39 65.871 118.963 67.72 120.953 69.0793C122.953 70.4283 125.25 71.1002 127.848 71.1002Z" fill="#5E17EB"/>
<path d="M174.357 32.5793C177.399 32.5793 180.097 32.9075 182.461 33.5585C184.821 34.2148 186.659 35.1158 187.982 36.2668C189.316 37.4231 189.982 38.7564 189.982 40.2668C189.982 41.2252 189.696 42.1158 189.128 42.9335C188.571 43.7564 187.732 44.1627 186.607 44.1627C185.816 44.1627 185.149 44.0273 184.607 43.746C184.076 43.4543 183.586 43.1158 183.128 42.7252C182.68 42.3241 182.128 41.9283 181.461 41.5377C180.836 41.2043 179.92 40.9283 178.711 40.7043C177.503 40.47 176.42 40.3502 175.461 40.3502C172.472 40.3502 169.899 41.0325 167.732 42.3918C165.566 43.7408 163.878 45.5689 162.67 47.871C161.461 50.1783 160.857 52.7981 160.857 55.7252C160.857 58.6575 161.461 61.2773 162.67 63.5793C163.878 65.8866 165.534 67.72 167.649 69.0793C169.758 70.4283 172.217 71.1002 175.024 71.1002C176.717 71.1002 178.097 70.9752 179.17 70.7252C180.237 70.4648 181.17 70.1366 181.961 69.746C182.805 69.2356 183.524 68.7148 184.107 68.1835C184.701 67.6418 185.534 67.371 186.607 67.371C187.842 67.371 188.779 67.7564 189.42 68.5168C190.071 69.2825 190.399 70.2252 190.399 71.3502C190.399 72.5898 189.649 73.7825 188.149 74.9335C186.659 76.0898 184.68 77.0325 182.211 77.7668C179.737 78.5012 177.008 78.871 174.024 78.871C169.633 78.871 165.821 77.8606 162.586 75.8293C159.347 73.8033 156.842 71.0481 155.066 67.5585C153.284 64.0585 152.399 60.1158 152.399 55.7252C152.399 51.2825 153.326 47.3293 155.191 43.871C157.05 40.4023 159.639 37.6523 162.961 35.621C166.279 33.595 170.076 32.5793 174.357 32.5793Z" fill="#5E17EB"/>
<path d="M196.984 78.0168C195.801 78.0168 194.801 77.6105 193.984 76.7876C193.161 75.9699 192.754 74.9438 192.754 73.7043V19.8293C192.754 18.5949 193.161 17.5741 193.984 16.7668C194.801 15.9491 195.801 15.5376 196.984 15.5376C198.218 15.5376 199.223 15.9491 200.004 16.7668C200.796 17.5741 201.192 18.5949 201.192 19.8293V73.7043C201.192 74.9438 200.796 75.9699 200.004 76.7876C199.223 77.6105 198.218 78.0168 196.984 78.0168ZM224.504 33.4334C225.572 33.4334 226.504 33.8866 227.296 34.7876C228.088 35.6938 228.484 36.5949 228.484 37.4959C228.484 38.6209 227.947 39.6626 226.879 40.6209L200.442 64.2459L200.109 54.5376L221.379 34.7876C222.28 33.8866 223.322 33.4334 224.504 33.4334ZM225.525 77.9334C224.343 77.9334 223.327 77.4543 222.484 76.4959L205.588 58.6834L212.004 52.7668L228.484 70.5793C229.369 71.5376 229.817 72.6105 229.817 73.7876C229.817 75.0376 229.322 76.048 228.338 76.8084C227.364 77.5584 226.426 77.9334 225.525 77.9334Z" fill="#5E17EB"/>
<path d="M232.179 34.1002H252.033C253.158 34.1002 254.095 34.4856 254.845 35.246C255.606 36.0116 255.991 36.9543 255.991 38.0793C255.991 39.1523 255.606 40.0533 254.845 40.7877C254.095 41.5116 253.158 41.871 252.033 41.871H232.179C231.054 41.871 230.106 41.496 229.345 40.746C228.595 39.9856 228.22 39.0689 228.22 37.996C228.22 36.871 228.595 35.9439 229.345 35.2043C230.106 34.47 231.054 34.1002 232.179 34.1002ZM241.054 23.1418C242.288 23.1418 243.304 23.5533 244.095 24.371C244.887 25.1783 245.283 26.1991 245.283 27.4335V66.621C245.283 67.6366 245.449 68.4543 245.783 69.0793C246.116 69.6939 246.574 70.1106 247.158 70.3293C247.751 70.5533 248.366 70.6627 248.991 70.6627C249.6 70.6627 250.142 70.5533 250.616 70.3293C251.1 70.1106 251.684 69.996 252.366 69.996C253.043 69.996 253.663 70.3085 254.22 70.9335C254.788 71.5481 255.074 72.3866 255.074 73.4543C255.074 74.8033 254.335 75.9023 252.866 76.746C251.408 77.595 249.83 78.0168 248.137 78.0168C247.179 78.0168 246.054 77.9335 244.762 77.7668C243.47 77.6002 242.22 77.1783 241.012 76.496C239.804 75.8189 238.804 74.7356 238.012 73.246C237.22 71.7616 236.824 69.6627 236.824 66.9543V27.4335C236.824 26.1991 237.231 25.1783 238.054 24.371C238.871 23.5533 239.871 23.1418 241.054 23.1418Z" fill="black"/>
<path d="M279.639 78.871C274.957 78.871 270.9 77.9023 267.473 75.9543C264.04 74.0116 261.379 71.3398 259.493 67.9335C257.603 64.5168 256.66 60.6158 256.66 56.2252C256.66 51.2825 257.66 47.0533 259.66 43.5377C261.66 40.0116 264.264 37.3033 267.473 35.4127C270.681 33.5273 274.082 32.5793 277.681 32.5793C280.441 32.5793 283.061 33.1366 285.535 34.246C288.02 35.345 290.228 36.8658 292.16 38.8085C294.103 40.7408 295.639 43.0168 296.764 45.6418C297.9 48.2564 298.499 51.1106 298.556 54.2043C298.499 55.3293 298.046 56.2616 297.202 56.996C296.353 57.72 295.368 58.0793 294.243 58.0793H261.389L259.368 50.9127H291.118L289.514 52.4335V50.3293C289.4 48.3606 288.754 46.6314 287.577 45.1418C286.395 43.6418 284.931 42.4856 283.181 41.6627C281.431 40.845 279.598 40.4335 277.681 40.4335C275.999 40.4335 274.379 40.7043 272.827 41.246C271.285 41.7773 269.91 42.6366 268.702 43.8293C267.493 45.0116 266.535 46.5741 265.827 48.5168C265.118 50.4491 264.764 52.8502 264.764 55.7252C264.764 58.8241 265.41 61.5273 266.702 63.8293C268.004 66.1366 269.754 67.9283 271.952 69.2043C274.145 70.47 276.561 71.1002 279.202 71.1002C281.285 71.1002 282.999 70.8918 284.348 70.4752C285.707 70.0481 286.837 69.5273 287.743 68.9127C288.645 68.2877 289.431 67.6939 290.098 67.121C290.941 66.621 291.79 66.371 292.639 66.371C293.65 66.371 294.493 66.7252 295.16 67.4335C295.837 68.1314 296.181 68.9543 296.181 69.9127C296.181 71.1523 295.561 72.2773 294.327 73.2877C292.796 74.746 290.691 76.0481 288.014 77.1835C285.348 78.3085 282.556 78.871 279.639 78.871Z" fill="black"/>
<path d="M338.064 32.9335C339.298 32.9335 340.304 33.345 341.085 34.1627C341.876 34.97 342.272 35.9908 342.272 37.2252V73.7043C342.272 74.9439 341.876 75.97 341.085 76.7877C340.304 77.6106 339.298 78.0168 338.064 78.0168C336.866 78.0168 335.861 77.6106 335.043 76.7877C334.236 75.97 333.835 74.9439 333.835 73.7043V67.621L335.606 67.8918C335.606 68.9075 335.194 70.0325 334.376 71.2668C333.554 72.5064 332.444 73.6991 331.043 74.8502C329.637 76.0064 327.981 76.9648 326.064 77.7252C324.147 78.4856 322.09 78.871 319.897 78.871C316.007 78.871 312.512 77.871 309.418 75.871C306.335 73.871 303.887 71.1314 302.085 67.6418C300.278 64.1418 299.376 60.1731 299.376 55.7252C299.376 51.1731 300.278 47.1627 302.085 43.7043C303.887 40.2356 306.319 37.5116 309.376 35.5377C312.444 33.5689 315.866 32.5793 319.647 32.5793C322.064 32.5793 324.298 32.9752 326.356 33.7668C328.408 34.5585 330.194 35.5741 331.71 36.8085C333.236 38.0481 334.408 39.3606 335.231 40.746C336.048 42.121 336.46 43.4283 336.46 44.6627L333.835 44.9127V37.2252C333.835 36.0481 334.236 35.0377 335.043 34.2043C335.861 33.3606 336.866 32.9335 338.064 32.9335ZM320.835 71.1002C323.47 71.1002 325.804 70.4283 327.835 69.0793C329.861 67.72 331.439 65.871 332.564 63.5377C333.689 61.2043 334.251 58.6002 334.251 55.7252C334.251 52.7981 333.689 50.1783 332.564 47.871C331.439 45.5689 329.861 43.7408 327.835 42.3918C325.804 41.0325 323.47 40.3502 320.835 40.3502C318.236 40.3502 315.939 41.0325 313.939 42.3918C311.949 43.7408 310.376 45.5689 309.21 47.871C308.054 50.1783 307.481 52.7981 307.481 55.7252C307.481 58.6002 308.054 61.2043 309.21 63.5377C310.376 65.871 311.949 67.72 313.939 69.0793C315.939 70.4283 318.236 71.1002 320.835 71.1002Z" fill="black"/>
<path d="M369.968 32.8501C374.135 32.8501 377.343 33.8813 379.593 35.9334C381.843 37.9907 383.333 40.7616 384.073 44.2459L382.718 43.8293L383.302 42.4751C384.036 41.0063 385.146 39.5272 386.635 38.0376C388.135 36.5532 389.916 35.3188 391.989 34.3293C394.073 33.3449 396.302 32.8501 398.677 32.8501C402.552 32.8501 405.557 33.6834 407.698 35.3501C409.833 37.0063 411.328 39.2251 412.177 42.0168C413.021 44.798 413.448 47.9022 413.448 51.3293V73.7043C413.448 74.9438 413.052 75.9699 412.26 76.7876C411.479 77.6105 410.468 78.0168 409.218 78.0168C408.036 78.0168 407.036 77.6105 406.218 76.7876C405.411 75.9699 405.01 74.9438 405.01 73.7043V51.4126C405.01 49.4438 404.739 47.6418 404.198 46.0168C403.666 44.3813 402.739 43.0741 401.406 42.1001C400.083 41.1157 398.271 40.6209 395.968 40.6209C393.771 40.6209 391.812 41.1157 390.093 42.1001C388.385 43.0741 387.052 44.3813 386.093 46.0168C385.135 47.6418 384.656 49.4438 384.656 51.4126V73.7043C384.656 74.9438 384.26 75.9699 383.468 76.7876C382.677 77.6105 381.661 78.0168 380.427 78.0168C379.187 78.0168 378.177 77.6105 377.385 76.7876C376.604 75.9699 376.218 74.9438 376.218 73.7043V51.3293C376.218 49.3605 375.948 47.5584 375.406 45.9334C374.875 44.298 373.958 43.0063 372.656 42.0584C371.364 41.1001 369.562 40.6209 367.26 40.6209C365.062 40.6209 363.119 41.1001 361.427 42.0584C359.744 43.0063 358.437 44.298 357.51 45.9334C356.578 47.5584 356.114 49.3605 356.114 51.3293V73.7043C356.114 74.9438 355.703 75.9699 354.885 76.7876C354.062 77.6105 353.062 78.0168 351.885 78.0168C350.646 78.0168 349.635 77.6105 348.843 76.7876C348.062 75.9699 347.677 74.9438 347.677 73.7043V37.9126C347.677 36.6782 348.062 35.6522 348.843 34.8293C349.635 34.0116 350.646 33.6001 351.885 33.6001C353.062 33.6001 354.062 34.0116 354.885 34.8293C355.703 35.6522 356.114 36.6782 356.114 37.9126V42.8918L354.51 43.8293C354.896 42.5793 355.541 41.3084 356.448 40.0168C357.349 38.7251 358.489 37.548 359.864 36.4751C361.25 35.4074 362.786 34.5376 364.468 33.8709C366.161 33.1938 367.994 32.8501 369.968 32.8501Z" fill="black"/>
<path d="M416.218 71.1002C415.718 70.3085 415.494 69.3918 415.552 68.3502C415.604 67.3085 416.198 66.4231 417.323 65.6835C418.099 65.1835 418.927 64.9752 419.802 65.0585C420.677 65.1418 421.51 65.5793 422.302 66.371C423.869 68.1106 425.625 69.4856 427.573 70.496C429.515 71.5116 431.869 72.0168 434.635 72.0168C435.76 71.9648 436.911 71.7825 438.093 71.4752C439.27 71.1731 440.281 70.6106 441.114 69.7877C441.958 68.97 442.385 67.7773 442.385 66.2043C442.385 64.7877 441.932 63.6627 441.031 62.8293C440.14 61.9856 438.958 61.2981 437.489 60.7668C436.031 60.2252 434.453 59.7252 432.76 59.2668C430.968 58.7668 429.156 58.2148 427.323 57.6002C425.489 56.9752 423.843 56.1731 422.385 55.1835C420.927 54.1991 419.729 52.9231 418.802 51.3502C417.869 49.7668 417.406 47.8241 417.406 45.5168C417.406 42.8658 418.145 40.5898 419.635 38.6835C421.135 36.7668 423.078 35.2773 425.468 34.2043C427.854 33.121 430.458 32.5793 433.281 32.5793C434.906 32.5793 436.619 32.7981 438.427 33.2252C440.229 33.6418 441.974 34.3033 443.656 35.2043C445.349 36.1106 446.812 37.2877 448.052 38.746C448.619 39.4856 448.948 40.3606 449.031 41.371C449.114 42.3866 448.645 43.2877 447.635 44.0793C446.953 44.6366 446.135 44.8866 445.177 44.8293C444.218 44.7773 443.432 44.47 442.823 43.9127C441.75 42.5533 440.369 41.496 438.677 40.746C436.994 39.9856 435.083 39.6002 432.948 39.6002C431.875 39.6002 430.76 39.7564 429.593 40.0585C428.437 40.3658 427.468 40.9127 426.677 41.7043C425.895 42.496 425.51 43.6523 425.51 45.1627C425.51 46.5793 425.974 47.7148 426.906 48.5585C427.833 49.3918 429.057 50.095 430.573 50.6627C432.099 51.22 433.76 51.7252 435.552 52.1835C437.302 52.6314 439.031 53.1627 440.739 53.7877C442.458 54.4023 444.01 55.1991 445.385 56.1835C446.77 57.1731 447.895 58.4439 448.76 59.996C449.635 61.5377 450.073 63.4908 450.073 65.8502C450.073 68.6158 449.265 70.97 447.656 72.9127C446.057 74.8606 444.036 76.3398 441.593 77.3502C439.145 78.3606 436.573 78.871 433.864 78.871C430.656 78.871 427.458 78.2929 424.281 77.1418C421.099 75.9752 418.411 73.9648 416.218 71.1002Z" fill="black"/>
<mask id="mask10_10248_193" style="mask-type:luminance" maskUnits="userSpaceOnUse" x="455" y="66" width="15" height="14">
<path d="M455.422 66.125H469.333V80H455.422V66.125Z" fill="white"/>
</mask>
<g mask="url(#mask10_10248_193)">
<path d="M462.266 66.2761C458.568 66.2761 455.573 69.2709 455.573 72.9688C455.573 76.6615 458.568 79.6563 462.266 79.6563C465.959 79.6563 468.953 76.6615 468.953 72.9688C468.953 69.2709 465.959 66.2761 462.266 66.2761ZM465.922 76.6251C464.943 77.599 463.646 78.1355 462.266 78.1355C460.886 78.1355 459.584 77.599 458.61 76.6251C457.631 75.6459 457.094 74.349 457.094 72.9688C457.094 71.5886 457.631 70.2865 458.61 69.3126C459.584 68.3334 460.886 67.797 462.266 67.797C463.646 67.797 464.943 68.3334 465.922 69.3126C466.896 70.2865 467.433 71.5886 467.433 72.9688C467.433 74.349 466.896 75.6459 465.922 76.6251Z" fill="#5E17EB"/>
<path d="M462.266 79.8125C458.49 79.8125 455.422 76.7396 455.422 72.9688C455.422 69.1927 458.49 66.125 462.266 66.125C466.036 66.125 469.109 69.1927 469.109 72.9688C469.109 76.7396 466.036 79.8125 462.266 79.8125ZM462.266 66.4271C458.661 66.4271 455.724 69.3646 455.724 72.9688C455.724 76.5729 458.661 79.5052 462.266 79.5052C465.87 79.5052 468.802 76.5729 468.802 72.9688C468.802 69.3646 465.87 66.4271 462.266 66.4271ZM462.266 78.2917C460.844 78.2917 459.505 77.7396 458.5 76.7292C457.495 75.724 456.943 74.3906 456.943 72.9688C456.943 71.5469 457.495 70.2083 458.5 69.2031C459.505 68.1979 460.844 67.6458 462.266 67.6458C463.687 67.6458 465.021 68.1979 466.026 69.2031C467.031 70.2083 467.589 71.5469 467.589 72.9688C467.589 74.3906 467.031 75.724 466.026 76.7292C465.021 77.7396 463.687 78.2917 462.266 78.2917ZM462.266 67.9479C460.922 67.9479 459.661 68.474 458.719 69.4219C457.771 70.3698 457.245 71.625 457.245 72.9688C457.245 74.3073 457.771 75.5677 458.719 76.5156C459.667 77.4635 460.922 77.9844 462.266 77.9844C463.604 77.9844 464.865 77.4635 465.813 76.5156C466.76 75.5677 467.281 74.3073 467.281 72.9688C467.281 71.625 466.76 70.3698 465.813 69.4219C464.865 68.474 463.604 67.9479 462.266 67.9479Z" fill="#5E17EB"/>
</g>
</svg>
